<?xml version="1.0" standalone="no"?>
<!DOCTYPE svg PUBLIC "-//W3C//DTD SVG 20010904//EN"
 "http://www.w3.org/TR/2001/REC-SVG-20010904/DTD/svg10.dtd">
<svg version="1.0" xmlns="http://www.w3.org/2000/svg"
 width="320.000000pt" height="320.000000pt" viewBox="0 0 320.000000 320.000000"
 preserveAspectRatio="xMidYMid meet">
<metadata>
Created by potrace 1.11, written by Peter Selinger 2001-2013
</metadata>
<g transform="translate(0.000000,320.000000) scale(0.100000,-0.100000)"
fill="#000000" stroke="none">
<path d="M838 2510 c-309 -76 -557 -334 -640 -666 -32 -127 -32 -341 0 -469
29 -118 106 -274 182 -369 107 -134 277 -248 435 -291 96 -26 256 -31 354 -11
138 28 282 97 364 174 27 26 28 26 46 7 10 -11 76 -83 147 -160 70 -77 132
-141 136 -143 4 -2 9 77 9 175 1 143 3 166 10 118 15 -105 19 -109 127 -145
270 -90 571 -24 790 175 123 111 133 245 26 364 -57 63 -108 91 -168 91 -60 0
-90 -13 -145 -62 -25 -22 -75 -55 -111 -72 -57 -27 -76 -31 -150 -31 -76 0
-93 4 -151 32 -83 41 -150 111 -192 201 -27 57 -32 81 -35 162 -3 78 0 106 18
159 69 205 267 320 456 267 77 -23 125 -54 204 -136 77 -79 121 -96 204 -78
40 8 60 21 103 64 66 66 93 121 93 194 0 74 -24 123 -101 204 -153 164 -340
253 -555 263 -313 15 -578 -131 -748 -413 -20 -32 -36 -56 -36 -52 0 19 45
118 73 162 l31 49 -44 40 c-208 184 -482 258 -732 197z m329 -515 c77 -34 163
-121 201 -202 25 -53 27 -68 27 -183 0 -121 -1 -127 -32 -191 -40 -80 -120
-160 -200 -197 -49 -22 -72 -27 -143 -27 -74 0 -93 4 -150 31 -164 78 -262
268 -231 452 46 268 298 421 528 317z"/>
</g>
</svg>
